# xmcd CD database file
#
# Track frame offsets:
#	150
#	11797
#	21516
#	33017
#	43342
#	54998
#	65285
#	75599
#	86028
#	96258
#	110067
#	122699
#	134716
#	145826
#	157164
#	168700
#	180379
#	190533
#	201476
#	212206
#	224957
#	235891
#	248232
#	258686
#	270221
#	280835
#
# Disc length: 3889 seconds
#
# Revision: 0
# Processed by: cddbd v1.5.2PL0 Copyright (c) Steve Scherf et al.
# Submitted via: CDex 1.72
#
DISCID=900f2f1a
DTITLE=Wanda Jackson - Before The Music Died - The Complete Recordings 1954-1962 Disc Three
DYEAR=2013
DGENRE=Country
TTITLE0=01 - In The Middle Of A Heartache
TTITLE1=02 - Seven Lonely Days
TTITLE2=03 - If I Cried Every Time You Hurt Me
TTITLE3=04 - Is It Wrong
TTITLE4=05 - Don't Ask Me Why
TTITLE5=06 - Let My Love Walk In
TTITLE6=07 - A Little Bitty Tear
TTITLE7=08 - I Need You Know
TTITLE8=09 - I Don't Wanna Go
TTITLE9=10 - We Could
TTITLE10=11 - You Don't Know, Baby
TTITLE11=12 - I'd Be Ashamed
TTITLE12=13 - Lovin' Country Style
TTITLE13=14 - You Can't Have My Love
TTITLE14=15 - The Right To Love
TTITLE15=16 - If You Knew What I Know
TTITLE16=17 - If You Don't, Somebody Else Will
TTITLE17=18 - You'd Be The First One To Know
TTITLE18=19 - Tears At The Grand Ole Opry
TTITLE19=20 - Nobody's Darlin But Mine
TTITLE20=21 - It's The Same Word, Wherever You Go
TTITLE21=22 - Don't Do The Things He'd Do
TTITLE22=23 - Wasted
TTITLE23=24 - I Cried Again
TTITLE24=25 - The Heart You Could Have
TTITLE25=26 - You Won't Forget (About Me)
EXTD=YEAR: 2013
EXTT0=
EXTT1=
EXTT2=
EXTT3=
EXTT4=
EXTT5=
EXTT6=
EXTT7=
EXTT8=
EXTT9=
EXTT10=
EXTT11=
EXTT12=
EXTT13=
EXTT14=
EXTT15=
EXTT16=
EXTT17=
EXTT18=
EXTT19=
EXTT20=
EXTT21=
EXTT22=
EXTT23=
EXTT24=
EXTT25=
PLAYORDER=
